<?xml version="1.0" encoding="UTF-8"?>
<svg width="1440px" height="832px" viewBox="0 0 1440 832" version="1.1" xmlns="http://www.w3.org/2000/svg" xmlns:xlink="http://www.w3.org/1999/xlink">
    <!-- Generator: Sketch 52.1 (67048) - http://www.bohemiancoding.com/sketch -->
    <title>Desktop HD Copy</title>
    <desc>Created with Sketch.</desc>
    <g id="Desktop-HD-Copy" stroke="none" stroke-width="1" fill="none" fill-rule="evenodd">
        <rect fill="#13777C" x="0" y="0" width="1440" height="832"></rect>
        <g id="group-copy-10" transform="translate(1182.131362, 113.473489) rotate(-20.000000) translate(-1182.131362, -113.473489) translate(832.131362, -197.526511)">
            <path d="M0.614208492,519.103878 C8.19772481,507.362582 3.18701517,303.152913 68.9525792,229.22445 C105.927441,187.366 332.035713,294.819862 340.839787,280.375477 C354.789474,257.485344 293.80175,227.505034 232.560279,203.801882 C186.464962,185.962132 139.679067,169.577769 127.592336,174.14195 C122.315031,171.735089 190.158755,87.0989125 204.119684,87.2856656 C215.5062,87.43861 261.166292,107.849434 306.958075,133.726006 C364.075347,165.994041 415.117134,207.437127 422.742406,200.995756 C435.137488,190.535973 378.320538,142.237761 373.894411,135.379415 C369.471496,128.521069 349.939364,96.5798515 332.806592,84.1044234 C315.673819,71.6322152 264.868114,33.2753853 261.049054,25.4864937 C261.049054,25.4864937 274.981075,25.911518 279.598316,25.6152889 C302.336017,24.1502432 369.714001,13.2589964 369.714001,13.2589964 C369.714001,13.2589964 409.134796,47.0274962 442.908906,86.9572378 L443.920684,88.1550334 C477.312567,127.630772 507.90038,163.971956 513.182503,159.00207 C523.600603,149.194313 470.504747,78.6080869 448.783642,64.6998119 C426.913179,50.70621 420.331805,32.9791563 419.771312,32.7682541 C420.953326,32.3223006 480.820064,13.4537992 533.143436,47.4927689 C585.885973,81.8070385 579.630616,105.500531 587.442183,113.790114 C595.258569,122.074868 614.260722,151.279186 609.436308,162.572918 C604.708254,173.641258 578.424512,210.740725 577.37419,212.22026 L577.34207,212.265338 L0.614208492,519.103878 Z M0.903287894,519.297071 L577.383826,212.947953 C577.383826,212.947953 625.242527,211.371821 637.587824,213.533971 C649.944362,215.691291 664.857647,247.035221 667.785379,257.916808 C670.701869,268.801615 694.520406,276.49069 695.601242,338.238344 C696.680472,399.973118 630.031609,446.804675 630.031609,446.804675 C630.031609,446.804675 635.39082,423.816336 635.145103,398.018651 C634.900991,372.711998 602.72003,291.054211 588.630621,294.283752 C581.413272,295.93716 596.596364,341.532282 612.773569,390.793238 C628.947562,440.039705 636.760735,490.587004 636.760735,490.587004 C636.760735,490.587004 590.943256,539.876939 577.379008,557.694149 C574.62633,561.316515 567.460373,572.957994 567.460373,572.957994 C562.809406,565.610226 557.193236,503.273334 555.693235,482.495443 C554.20287,461.723992 537.211425,428.449744 533.689474,421.124515 C530.172342,413.791237 519.235504,341.142677 503.512797,345.63763 C493.835061,348.395458 501.980676,412.601491 498.932494,476.831673 C496.478531,528.315957 489.399298,576.747793 483.37681,586.161115 C475.98762,597.691508 366.309289,607.473506 367.083379,601.849984 C377.556083,594.431379 388.71776,547.252076 398.252562,499.850601 C410.923876,436.882612 418.046472,370.738211 390.757376,369.778686 C373.539486,369.179789 343.965057,612.436952 287.872411,620.093829 C188.552758,633.963465 15.1259945,519.433916 0.900075901,519.30029 L0.903287894,519.297071 Z" id="Shape" fill="#ED5262" fill-rule="nonzero"></path>
            <path d="M4.12077773,506.546124 C11.7042765,494.80808 6.69518446,290.598951 72.4605965,216.670684 C109.436979,174.812345 335.543123,282.265922 344.347176,267.821575 C358.296831,244.931503 297.310854,214.951272 236.069524,191.248183 C189.972708,173.405261 143.186921,157.022551 131.098612,161.58511 C125.822925,159.178255 193.668098,74.5423027 207.627389,74.7290553 C219.013879,74.8803893 264.673865,95.2927695 310.465543,121.169273 C367.582682,153.437223 418.625957,194.880199 426.251212,188.438844 C438.646265,177.979089 381.82784,129.681005 377.403329,122.822677 C372.978819,115.964349 353.446732,84.0216067 336.313999,71.5478215 C319.181266,59.0756463 268.375679,20.718918 264.555022,12.9268272 C264.555022,12.9268272 278.487011,13.3534603 283.10424,13.0588419 C305.843495,11.5921901 373.219718,0.700972214 373.219718,0.700972214 C373.219718,0.700972214 412.642027,34.4709925 446.416059,74.4006284 L447.427835,75.5968109 C480.822853,115.074055 511.408989,151.416753 516.692706,146.44688 C527.109176,136.639149 474.013443,66.0514996 452.292388,52.1448713 C430.423581,38.1496965 417.52264,24.0836846 416.960542,23.8727829 C418.140947,23.4268306 484.330341,0.898994358 536.651986,34.9378739 C589.394401,69.2520526 583.140665,92.9438727 590.950609,101.235044 C598.766976,109.519775 617.769085,138.724016 612.946288,150.017718 C608.218245,161.086029 581.932958,198.185397 580.882639,199.664929 L580.850519,199.710007 L4.12077773,506.546124 Z M4.40985647,506.742536 L580.890669,200.39101 C580.890669,200.39101 628.749259,198.813273 641.094527,200.975417 C653.451037,203.135951 668.364288,234.478188 671.292013,245.359746 C674.208496,256.244524 698.028584,263.933579 699.107811,325.681069 C700.187038,387.41568 633.53833,434.247112 633.53833,434.247112 C633.53833,434.247112 638.897529,411.258834 638.651812,385.461218 C638.407701,360.154632 606.22842,278.497061 592.139043,281.726593 C584.921711,283.379998 600.104768,328.974999 616.281936,378.235824 C632.454285,427.482161 640.267441,478.029325 640.267441,478.029325 C640.267441,478.029325 594.451673,527.31752 580.885851,545.134683 C578.134785,548.757039 570.968844,560.400097 570.968844,560.400097 C566.316282,553.052349 560.700125,490.715622 559.201734,469.937786 C557.709766,449.16639 540.71836,415.89223 537.196418,408.567021 C533.679293,401.233762 522.742481,328.585394 507.021416,333.080336 C497.342096,335.838156 505.487693,400.044019 502.439518,464.274031 C499.985561,515.756569 492.90795,564.189887 486.885476,573.603184 C479.494697,585.131936 369.816619,594.915518 370.590707,589.292011 C381.063387,581.873426 392.226645,534.694247 401.761425,487.292898 C414.432709,424.325076 421.553682,358.17924 394.266256,357.221328 C377.046799,356.622432 347.472439,599.878951 291.379922,607.535807 C192.060499,621.405407 18.6357422,506.876161 4.40985647,506.742536 Z" id="Shape" fill="#F37079" fill-rule="nonzero"></path>
            <path d="M581.668119,199.693766 C422.992354,280.352074 333.086869,329.079364 311.943616,345.878868 C280.231956,371.076508 194.806137,410.83027 180.002642,419.230022 C165.197538,427.631391 25.5828822,479.654254 4.66811861,508.693766" id="Path" stroke="#F05F6C" stroke-width="2.65"></path>
        </g>
    </g>
</svg>